# Blender v2.72 (sub 0) OBJ File: ''
# www.blender.org
mtllib three_objects.mtl
o Cone
v 2.000000 -1.000000 0.000000
v 2.195090 -1.000000 0.019215
v 2.382684 -1.000000 0.076120
v 2.555570 -1.000000 0.168530
v 2.707107 -1.000000 0.292893
v 2.831470 -1.000000 0.444430
v 2.923880 -1.000000 0.617317
v 2.980785 -1.000000 0.804910
v 3.000000 -1.000000 1.000000
v 2.000000 1.000000 1.000000
v 2.980785 -1.000000 1.195090
v 2.923880 -1.000000 1.382683
v 2.831470 -1.000000 1.555570
v 2.707107 -1.000000 1.707107
v 2.555570 -1.000000 1.831470
v 2.382683 -1.000000 1.923880
v 2.195090 -1.000000 1.980785
v 2.000000 -1.000000 2.000000
v 1.804909 -1.000000 1.980785
v 1.617316 -1.000000 1.923879
v 1.444429 -1.000000 1.831469
v 1.292893 -1.000000 1.707106
v 1.168530 -1.000000 1.555570
v 1.076120 -1.000000 1.382683
v 1.019215 -1.000000 1.195089
v 1.000000 -1.000000 0.999999
v 1.019215 -1.000000 0.804909
v 1.076121 -1.000000 0.617316
v 1.168531 -1.000000 0.444429
v 1.292894 -1.000000 0.292892
v 1.444431 -1.000000 0.168530
v 1.617318 -1.000000 0.076120
v 1.804911 -1.000000 0.019214
v 2.000000 -1.000000 0.000000
v 2.195090 -1.000000 0.019215
v 2.382684 -1.000000 0.076120
v 2.555570 -1.000000 0.168530
v 2.707107 -1.000000 0.292893
v 2.831470 -1.000000 0.444430
v 2.923880 -1.000000 0.617317
v 2.980785 -1.000000 0.804910
v 3.000000 -1.000000 1.000000
v 2.980785 -1.000000 1.195090
v 2.923880 -1.000000 1.382683
v 2.831470 -1.000000 1.555570
v 2.707107 -1.000000 1.707107
v 2.555570 -1.000000 1.831470
v 2.382683 -1.000000 1.923880
v 2.195090 -1.000000 1.980785
v 2.000000 -1.000000 2.000000
v 1.804909 -1.000000 1.980785
v 1.617316 -1.000000 1.923879
v 1.444429 -1.000000 1.831469
v 1.292893 -1.000000 1.707106
v 1.168530 -1.000000 1.555570
v 1.076120 -1.000000 1.382683
v 1.019215 -1.000000 1.195089
v 1.000000 -1.000000 0.999999
v 1.019215 -1.000000 0.804909
v 1.076121 -1.000000 0.617316
v 1.168531 -1.000000 0.444429
v 1.292894 -1.000000 0.292892
v 1.444431 -1.000000 0.168530
v 1.617318 -1.000000 0.076120
v 1.804911 -1.000000 0.019214
vn -0.342300 0.447200 -0.826300
vn 0.000000 1.000000 0.000000
vn -0.174500 0.447200 -0.877200
vn 0.000000 0.447200 -0.894400
vn 0.174500 0.447200 -0.877200
vn -0.496900 0.447200 -0.743700
vn -0.632500 0.447200 -0.632500
vn -0.743700 0.447200 -0.496900
vn -0.826300 0.447200 -0.342300
vn -0.877200 0.447200 -0.174500
vn -0.894400 0.447200 -0.000000
vn -0.877200 0.447200 0.174500
vn -0.826300 0.447200 0.342300
vn -0.743700 0.447200 0.496900
vn -0.632500 0.447200 0.632500
vn -0.496900 0.447200 0.743700
vn -0.342300 0.447200 0.826300
vn -0.174500 0.447200 0.877200
vn -0.000000 0.447200 0.894400
vn 0.174500 0.447200 0.877200
vn 0.342300 0.447200 0.826300
vn 0.496900 0.447200 0.743700
vn 0.632500 0.447200 0.632500
vn 0.743700 0.447200 0.496900
vn 0.826300 0.447200 0.342300
vn 0.877200 0.447200 0.174500
vn 0.894400 0.447200 0.000000
vn 0.877200 0.447200 -0.174500
vn 0.826300 0.447200 -0.342300
vn 0.743700 0.447200 -0.496900
vn 0.632500 0.447200 -0.632500
vn 0.496900 0.447200 -0.743700
vn 0.342300 0.447200 -0.826300
vn 0.000000 -1.000000 0.000000
usemtl Green
s 1
f 32//1 10//2 33//3
f 1//4 10//2 2//5
f 31//6 10//2 32//1
f 30//7 10//2 31//6
f 29//8 10//2 30//7
f 28//9 10//2 29//8
f 27//10 10//2 28//9
f 26//11 10//2 27//10
f 25//12 10//2 26//11
f 24//13 10//2 25//12
f 23//14 10//2 24//13
f 22//15 10//2 23//14
f 21//16 10//2 22//15
f 20//17 10//2 21//16
f 19//18 10//2 20//17
f 18//19 10//2 19//18
f 17//20 10//2 18//19
f 16//21 10//2 17//20
f 15//22 10//2 16//21
f 14//23 10//2 15//22
f 13//24 10//2 14//23
f 12//25 10//2 13//24
f 11//26 10//2 12//25
f 9//27 10//2 11//26
f 8//28 10//2 9//27
f 7//29 10//2 8//28
f 6//30 10//2 7//29
f 5//31 10//2 6//30
f 4//32 10//2 5//31
f 3//33 10//2 4//32
f 33//3 10//2 1//4
f 2//5 10//2 3//33
f 57//34 58//34 42//34
f 34//34 62//34 65//34
f 62//34 63//34 64//34
f 60//34 61//34 62//34
f 58//34 59//34 60//34
f 56//34 57//34 55//34
f 54//34 55//34 53//34
f 37//34 34//34 35//34
f 48//34 49//34 50//34
f 47//34 50//34 51//34
f 62//34 64//34 65//34
f 44//34 45//34 43//34
f 42//34 39//34 41//34
f 45//34 42//34 43//34
f 42//34 45//34 57//34
f 36//34 37//34 35//34
f 55//34 51//34 53//34
f 58//34 60//34 62//34
f 39//34 42//34 34//34
f 47//34 48//34 50//34
f 39//34 40//34 41//34
f 45//34 46//34 47//34
f 55//34 57//34 51//34
f 37//34 38//34 39//34
f 58//34 62//34 34//34
f 51//34 52//34 53//34
f 45//34 47//34 51//34
f 34//34 37//34 39//34
f 34//34 42//34 58//34
f 45//34 51//34 57//34
